<svg xmlns="http://www.w3.org/2000/svg" version="1.1" xmlns:xlink="http://www.w3.org/1999/xlink" xmlns:svgjs="http://svgjs.com/svgjs" width="1540" height="560" preserveAspectRatio="none" viewBox="0 0 1540 560"><g mask="url(&quot;#SvgjsMask1168&quot;)" fill="none"><rect width="1540" height="560" x="0" y="0" fill="url(#SvgjsLinearGradient1169)"></rect><path d="M1540 0L1104.84 0L1540 258.04z" fill="rgba(255, 255, 255, .1)"></path><path d="M1104.84 0L1540 258.04L1540 355.61L838.1999999999999 0z" fill="rgba(255, 255, 255, .075)"></path><path d="M838.2 0L1540 355.61L1540 458.56L425.21000000000004 0z" fill="rgba(255, 255, 255, .05)"></path><path d="M425.21000000000004 0L1540 458.56L1540 508.67L143.66000000000003 0z" fill="rgba(255, 255, 255, .025)"></path><path d="M0 560L170.9 560L0 406.22z" fill="rgba(0, 0, 0, .1)"></path><path d="M0 406.22L170.9 560L244.5 560L0 393.56z" fill="rgba(0, 0, 0, .075)"></path><path d="M0 393.56L244.5 560L462.61 560L0 257.37z" fill="rgba(0, 0, 0, .05)"></path><path d="M0 257.37L462.61 560L823.9000000000001 560L0 214.55z" fill="rgba(0, 0, 0, .025)"></path></g><defs><mask id="SvgjsMask1168"><rect width="1540" height="560" fill="#ffffff"></rect></mask><linearGradient x1="84.09%" y1="-43.75%" x2="15.91%" y2="143.75%" gradientUnits="userSpaceOnUse" id="SvgjsLinearGradient1169"><stop stop-color="rgba(143, 198, 255, 1)" offset="0"></stop><stop stop-color="rgba(255, 255, 255, 1)" offset="1"></stop></linearGradient></defs></svg>